<svg xmlns="http://www.w3.org/2000/svg" xmlns:xlink="http://www.w3.org/1999/xlink" xml:space="preserve" width="135.414mm" height="32.398mm" style="shape-rendering:geometricPrecision; text-rendering:geometricPrecision; image-rendering:optimizeQuality; fill-rule:evenodd; clip-rule:evenodd" viewBox="0 0 13370 3199">
 <defs>
  <style type="text/css">
   <![CDATA[
    .fil0 {fill:none}
    .fil1 {fill:#803031;fill-rule:nonzero}
    .fil2 {fill:#A19896;fill-rule:nonzero}
   ]]>
  </style>
 </defs>
 <g id="Camada_x0020_1">
  <metadata id="CorelCorpID_0Corel-Layer"></metadata>
  <g id="_1046708848">
   <rect class="fil0" width="13370" height="3199"></rect>
   <g>
    <path class="fil1" d="M3022 169l-1261 0c-104,0 -188,84 -188,188 0,-104 -85,-188 -189,-188l-1384 0 0 161 125 0c112,0 207,73 241,173l818 2219 3 0 0 -749c0,0 4,-69 -23,-95l0 -12c0,0 0,0 -1,0 -5,-8 -13,-17 -18,-25 -5,-10 -7,-21 1,-32 0,-2 0,-7 0,-7 0,0 -46,-31 -61,-54 -3,-4 -4,-7 -5,-11 -2,-7 0,-20 0,-20 4,-5 19,-18 19,-18l0 -4 -3 -3 -1 -1 0 -1c-3,-3 -5,-8 -5,-13 0,-5 2,-10 4,-14l5 -4 10 -9 0 -32 14 -11 0 -175 -19 -22c0,0 -11,-2 -12,-11 -7,-6 -18,-18 -23,-24 0,0 -1,-1 -1,-1 -1,-1 -1,-2 -1,-2l0 -16 37 -36 26 -28 0 -27 9 -11 0 -88 -11 -13 0 -19 6 -6 0 -22 -6 -11 19 -17c-1,-2 -1,-5 -1,-7 0,-18 17,-32 38,-32 21,0 38,14 38,32 0,2 0,5 -1,7l1 0 0 12 17 31 0 15 12 -12 22 6 0 -8 -1 -2 -5 -5 -3 -3 29 -25 25 6 0 -11 -2 -2 -6 -5 -2 -2 30 -27 25 7 0 -14 -1 -1 -6 -4 -3 -3 31 -28 13 5 0 -76 -9 -13 0 -16 9 -14 0 -29 7 -7c-1,-3 -2,-7 -2,-11 0,-20 19,-37 42,-37 23,0 42,17 42,37 0,4 -1,8 -2,11l9 3 0 20 -1 1 -2 2 0 10 7 3 0 17 -2 10 -2 19 -1 6 -4 0 0 24 30 8 0 7 -8 5 0 1 0 43 35 10 0 -37 -5 -4 12 -15 59 15 0 4 -3 2 -6 6 0 0 0 44 33 9 0 -33 -4 -6 0 -6 14 -11 54 15 0 4 -2 2 -7 5 -2 2 0 42 34 9 0 -33 -5 -6 0 -6 15 -11 56 15 0 4 -1 3 -4 6 -5 8 0 35 31 8 0 -28 -6 -10 0 -5 17 -12 51 14 0 5 -1 1 -7 5 -1 1 0 43 30 8 0 -31 -6 -7 0 -4 14 -14 10 3 0 -18 -4 -5 -2 -13 4 -7 -2 -23 6 -8c0,0 5,-1 8,-2 0,-3 -1,-5 -1,-8 0,-19 18,-34 40,-34 22,0 40,15 40,34 0,3 0,6 -1,9 0,0 0,0 0,0l9 15 -3 4 -5 6 0 7 16 19 0 16 -5 5 -6 7 -5 5 0 73 16 22 0 18 44 49 16 36 0 20 -25 19 -1 1c0,0 0,1 0,2 0,1 0,4 -1,6 -1,1 -1,2 -1,3 -2,2 -5,4 -9,5 0,2 -1,7 -6,8 -1,3 -2,7 -7,7l-1 0 0 152 5 2 9 21 0 21c0,0 26,68 29,74 1,3 3,6 4,10 0,0 0,1 0,1 0,1 0,2 1,3 0,3 0,5 0,8 1,3 1,5 1,8 -2,24 -21,34 -49,49 -5,5 -12,10 -14,14 0,1 0,1 0,2 0,0 0,0 0,0l0 0c0,0 0,0 0,0 3,4 5,13 1,25 0,0 0,1 -1,2 -3,8 -10,18 -22,30 0,0 -1,1 -1,1 0,1 0,1 -1,1 -12,14 -26,54 -26,120l0 819 1 0 818 -2219c34,-100 129,-173 242,-173l125 0 0 -161 -124 0z"></path>
    <path class="fil2" d="M2010 1751c-3,8 -10,18 -23,30 0,0 0,1 0,1 0,0 -1,1 -1,1 -5,-8 -10,-20 -12,-33 0,-1 0,-1 1,-1 0,-1 1,-1 1,0 7,3 28,3 34,2z"></path>
    <path class="fil2" d="M1163 1832c-7,-2 -12,2 -17,7 0,0 -1,1 -1,2 5,8 13,17 18,25 3,-4 6,-14 7,-22 0,-1 0,-2 0,-3 0,-1 0,-2 0,-2 0,-5 -2,-6 -7,-7z"></path>
    <path class="fil2" d="M1622 1829c-1,-1 -1,-1 -1,-1l-35 -6c-1,-1 -1,0 -1,0 -1,0 -1,0 -1,1l0 87c0,0 1,1 1,1l33 6c0,0 1,0 1,0 0,0 1,0 1,-1 0,0 0,0 -1,-1 -4,-10 -6,-20 -7,-31 -2,-19 1,-38 10,-54 0,-1 0,-1 0,-1z"></path>
    <path class="fil2" d="M1810 1952c1,0 1,0 1,0l50 10c0,0 0,0 0,0 0,0 0,0 1,0 0,-1 0,-1 0,-1l0 -87c0,-1 0,-1 -1,-1l-37 -7c0,0 -1,0 -1,0 0,0 0,1 0,1 2,6 3,13 3,19 3,24 -3,46 -15,65 -1,0 -1,0 -1,1z"></path>
    <path class="fil2" d="M1704 1625l-16 22c0,1 0,2 0,3 0,0 1,1 2,1l10 2c0,0 0,0 0,0 1,0 1,0 1,0l18 -7 34 6c1,0 2,0 2,0l18 -12c0,0 1,-1 0,-2 0,-1 0,-2 -1,-2l-66 -12c-1,0 -2,0 -2,1z"></path>
    <path class="fil2" d="M1738 1626c0,0 0,0 0,0 2,0 4,-1 4,-3 0,-2 -1,-4 -3,-4l-25 -5c-2,0 -4,1 -4,3 0,2 1,4 3,4l25 5z"></path>
    <path class="fil2" d="M2024 1708c28,-15 47,-26 49,-49 0,-6 -1,-10 -2,-14 0,-1 0,-2 0,-3 0,0 0,-1 0,-1 -10,-5 -20,-9 -30,-12 -20,-7 -40,-10 -60,-10 -30,0 -58,8 -78,22 -1,1 -1,2 -1,3 14,26 34,51 67,80 0,0 1,1 2,1 0,0 0,0 0,-1 6,-1 11,-2 17,-2 8,0 15,2 22,4 0,-1 0,-1 0,-2 0,0 0,0 0,0 0,0 0,0 0,0 0,-1 0,-1 0,-2 2,-4 9,-9 14,-14z"></path>
    <path class="fil2" d="M1691 1915c0,0 0,0 0,0l-36 3c-1,0 -2,1 -2,2 0,2 1,2 2,3l48 9c0,0 0,0 0,0 1,0 2,-1 2,-2 1,0 1,-2 0,-2l-12 -12c0,-1 -1,-1 -2,-1z"></path>
    <path class="fil2" d="M1736 1923c0,0 0,0 -1,0 0,0 0,0 -1,1l-8 7c0,1 -1,1 0,2 0,1 0,2 1,2l50 10c0,0 0,0 0,0 1,0 2,-1 2,-2 0,-1 0,-2 -1,-3l-42 -17z"></path>
    <path class="fil2" d="M1435 1661c-9,0 -17,2 -23,7 -1,0 -1,1 -1,2 4,9 11,19 18,26 0,0 1,1 1,1l0 0c6,-4 19,-1 19,-1 1,0 1,0 2,0 7,-8 12,-16 15,-24 0,-1 0,-1 -1,-2 -8,-6 -19,-9 -30,-9z"></path>
    <path class="fil2" d="M1118 1661c-7,2 -10,8 -9,15 2,6 7,9 12,9 2,0 3,0 4,0 17,-5 40,-10 71,-7 3,0 6,-1 9,-3l139 -112c5,-5 6,-13 2,-18 -5,-5 -13,-6 -18,-2l-135 109c-32,-2 -57,4 -75,9z"></path>
    <path class="fil2" d="M1439 1460c0,5 5,9 10,9 27,0 52,6 71,18 1,1 3,2 5,2 3,0 6,-2 7,-4 3,-5 2,-10 -2,-13 -22,-14 -51,-21 -81,-21 -5,0 -10,4 -10,9z"></path>
    <path class="fil2" d="M1210 1722c-11,-3 -24,-4 -37,-4 -39,0 -73,12 -88,30 15,24 61,53 61,53 5,-2 11,-3 17,-3 7,0 14,2 19,4 12,-27 26,-57 28,-80z"></path>
    <path class="fil2" d="M1591 1387c1,4 2,9 1,13 0,1 1,2 2,3l11 2c0,1 0,1 0,1 1,0 2,-1 2,-1l22 -34 17 4c0,0 0,0 1,0 1,0 2,-1 3,-3 0,-1 -1,-3 -3,-4l-124 -32c-1,-1 -3,0 -4,2 0,2 1,4 3,4l37 10c16,7 27,21 32,35z"></path>
    <path class="fil2" d="M1551 1330c-1,0 -1,0 -1,-1l-31 -8c-2,1 -3,2 -4,4 0,2 1,5 4,5l132 36c0,0 1,0 1,0 2,0 4,-1 5,-3 0,-3 -1,-5 -4,-6l-30 -8c1,-6 0,-11 -2,-18 -7,-22 -30,-41 -52,-41 -17,0 -27,12 -27,28l10 3c2,0 4,3 3,5 0,2 -2,4 -4,4z"></path>
    <path class="fil2" d="M1672 1375c-2,0 -4,1 -4,3 -1,1 0,3 2,4l26 7c17,6 27,20 32,34 1,5 2,10 2,14 0,1 0,2 1,2l11 3c0,0 1,0 1,0 0,0 1,0 2,-1l21 -34 19 5c0,0 0,0 0,0 2,0 3,-1 4,-3 0,-1 -1,-3 -3,-4l-114 -30z"></path>
    <path class="fil2" d="M1688 1366c0,0 -1,0 -1,0l-21 -6c-2,1 -3,2 -4,4 -1,2 1,5 3,5l125 34c0,0 1,0 1,0 2,0 4,-2 4,-4 1,-2 0,-5 -3,-5l-31 -9c0,-5 -1,-11 -2,-17 -8,-23 -31,-41 -52,-41 -17,0 -28,12 -28,28l10 2c3,1 4,3 4,6 -1,2 -3,3 -5,3z"></path>
    <path class="fil2" d="M1919 1441l-109 -29c-2,-1 -4,0 -4,2 -1,2 0,4 2,4l25 7c17,7 27,21 32,35 1,5 2,9 1,13 0,2 1,3 2,3l11 3c0,0 0,0 0,0 1,0 2,-1 2,-1l22 -34 14 4c0,0 0,0 1,0 1,0 3,-1 3,-3 1,-2 -1,-3 -2,-4z"></path>
    <path class="fil2" d="M1825 1403c-1,0 -1,0 -1,0l-19 -5c-2,0 -3,1 -4,3 -1,2 1,5 3,5l116 31c0,1 1,1 1,1 2,0 4,-2 4,-4 1,-2 -1,-5 -3,-5l-25 -7c1,-5 0,-11 -2,-17 -7,-23 -30,-41 -52,-41 -16,0 -27,11 -27,27l10 3c2,0 4,3 3,5 0,2 -2,4 -4,4z"></path>
    <path class="fil2" d="M1905 1599c2,0 4,0 5,-1 12,-7 27,-10 42,-10 6,0 11,-5 11,-11 0,-5 -5,-10 -11,-10 -17,0 -34,4 -48,11l-343 -76c-1,0 -2,0 -3,0 -4,0 -9,4 -10,8 -1,6 3,11 8,13l347 76c1,0 1,0 2,0z"></path>
    <path class="fil2" d="M1092 1399c1,9 12,11 12,11l18 22 0 9c1,0 1,-1 2,-1l24 -21 47 1c0,0 1,0 1,0l172 -153c1,0 1,-1 1,-1l0 -41 31 -27 50 -3 48 13 12 24c0,1 0,1 1,1l405 108 1 0 59 -5 40 11 8 12 1 0c5,0 6,-4 6,-7 6,-2 6,-6 6,-8 5,-1 8,-3 9,-5 1,-1 1,-2 2,-3l-13 -23c0,0 -1,-1 -2,-1l-58 -17c0,0 0,0 -1,0l-65 2 -369 -98 -24 -28c0,-1 -1,-1 -1,-1l-64 -20c0,0 -1,0 -1,0 0,0 0,0 0,0l-66 8c-1,0 -1,0 -1,0l-205 179 -73 5c-1,0 -1,0 -1,0l-36 32c0,0 1,1 1,1 5,6 16,18 23,24zm10 -1l0 0 25 -23c1,-1 2,-1 2,-1l57 -5 171 -147c2,-1 4,-1 5,1 2,1 2,3 0,4l-172 148c0,0 -1,1 -2,1l-57 5 -24 22c-1,0 -2,1 -3,1 -1,0 -2,-1 -2,-1 -2,-2 -2,-4 0,-5z"></path>
    <path class="fil2" d="M1449 1106l0 0 -80 9c0,0 0,0 -1,0l-65 58c0,1 -1,2 0,3 0,0 0,1 1,1l33 9c0,0 0,0 1,0 0,0 1,0 1,0l42 -36 71 -8 66 19 27 32c0,1 1,1 1,1l362 96c0,0 1,0 1,0l0 0 65 -2 62 17 13 23 1 -1 26 -19 0 -7 -16 -29c0,-1 -1,-1 -1,-1l-76 -20c0,0 -1,0 -1,0l-96 1 -313 -84 -30 -35c0,0 0,-1 -1,-1l-92 -25c0,-1 -1,-1 -1,-1z"></path>
    <path class="fil2" d="M1221 1490l-19 -1 -21 18 15 13 1 -1c0,0 0,0 0,0l3 -3c4,-3 9,-4 13,-4 9,0 17,5 20,14l0 0c0,0 0,0 1,0l4 -4 4 -42c0,0 0,-1 1,-1l23 -20c3,-3 8,-4 12,-4 9,0 17,6 20,14l0 0 5 -4 4 -42c0,0 0,-1 0,-1l24 -20c12,-7 26,-1 31,11 0,0 0,0 0,0l5 -4 0 -4 0 -91c-2,-1 -5,-1 -7,-1 -10,2 -19,18 -21,35 0,6 1,11 2,16l11 8c1,1 1,2 1,3 -1,2 -2,2 -3,2l-19 -1 -21 18c0,0 0,0 0,0l-10 8c-1,1 -3,1 -4,0 -1,-1 -1,-1 -1,-2 0,-1 0,-2 1,-2l15 -14c-2,-10 -8,-16 -15,-14 -10,1 -19,17 -21,34 0,6 1,11 2,16l11 8c1,1 1,2 1,3 -1,2 -2,2 -3,2l-19 -1 -20 17c0,0 0,0 0,0l-12 10c-1,1 -3,1 -4,0 -1,-1 -1,-2 -1,-2 0,-1 0,-1 0,-1 0,0 0,-1 1,-2l15 -13c-2,-10 -8,-16 -15,-15 -10,2 -19,18 -21,35 0,6 1,11 2,16l11 8c1,0 2,2 1,3 0,1 -2,2 -3,2z"></path>
    <path class="fil2" d="M1473 1649c21,-16 63,-49 71,-92 0,-1 0,-2 -1,-2 -19,-16 -56,-31 -98,-31 -28,0 -68,7 -95,43 -1,1 -1,1 0,2 8,21 25,60 55,82 0,0 1,0 1,0 1,0 1,0 2,0 5,-3 14,-7 26,-7 11,0 21,3 31,9 0,1 0,1 1,1 0,0 1,0 1,-1 2,-1 4,-3 6,-4z"></path>
    <path class="fil2" d="M1366 1786l-31 -8 -14 11c0,0 -1,0 -2,0 -1,0 -1,-1 -1,-2l0 -2c1,-28 -5,-51 -17,-63 -7,-7 -16,-9 -25,-6 -1,8 -2,12 -4,16 -3,4 -9,6 -10,7 -1,0 -1,0 -1,0l-9 -2c-16,23 -27,58 -27,92 -1,6 0,15 0,20l21 -3c4,1 6,3 6,7 0,4 -2,7 -6,7l-19 0c0,0 0,0 0,0l-36 27 0 2 0 -2 38 22 2 -1c1,-1 1,-1 1,-1 0,0 6,-4 14,-4 12,0 24,6 37,17 2,2 4,3 5,5 1,0 1,0 1,0 6,4 14,4 21,-1 17,-12 27,-52 21,-90 0,0 0,-2 1,-2l34 -26 0 -20z"></path>
    <path class="fil2" d="M1248 1916c0,0 -1,0 -1,0l-23 16c0,0 0,1 0,1l-1 90c0,0 1,1 1,1 0,0 0,0 1,0 0,0 0,0 0,0l30 -21c0,0 0,-1 0,-1 -6,-14 -10,-33 -9,-55 0,-9 1,-20 3,-30 0,0 0,0 -1,-1z"></path>
    <path class="fil2" d="M1342 1942c0,0 0,0 0,0 0,0 1,0 1,0l14 -10c1,-1 1,-1 1,-1l0 -90c0,0 0,0 -1,-1 0,0 -1,0 -1,0l-15 11c-1,1 -1,1 -1,2 5,12 7,29 6,47 0,13 -2,27 -5,41 0,0 0,1 1,1z"></path>
    <path class="fil2" d="M1292 1968c0,0 -1,0 -1,0l-12 16c-1,0 -1,1 0,1 0,1 0,1 1,1 0,0 0,0 0,-1l16 -11c0,0 1,0 1,0 0,-1 0,-1 -1,-1l-3 -5c0,0 -1,0 -1,0z"></path>
    <path class="fil2" d="M1305 1958c0,1 0,1 0,1l3 5c0,1 0,1 1,1 0,0 0,0 0,0 0,0 1,0 1,0l15 -11c1,0 1,-1 1,-1 -1,-1 -1,-1 -2,-1l-18 6c0,0 0,0 -1,0z"></path>
    <path class="fil2" d="M1267 1674c-1,0 -1,0 -1,0l-29 23c0,0 -1,1 -1,2 0,1 1,1 2,2l15 9c1,0 1,0 2,0 0,0 1,0 1,0l17 -14 18 2c0,0 0,0 0,0 0,0 1,0 1,0l17 -8c1,-1 1,-2 1,-2 0,-1 -1,-2 -2,-2l-40 -12c-1,0 -1,0 -1,0z"></path>
    <path class="fil2" d="M1299 1677c1,0 2,-1 2,-1 3,-4 4,-9 3,-13 -2,-4 -7,-6 -13,-6 -3,0 -7,0 -11,2 -3,2 -6,4 -9,6 0,1 0,2 0,2 0,1 1,2 1,2l27 8c0,0 0,0 0,0z"></path>
    <path class="fil2" d="M1225 1161c1,0 1,0 2,-1l25 -23 20 6c2,0 4,-1 4,-2 1,-2 0,-4 -2,-5l-21 -6c-2,0 -3,0 -4,1l-27 24c-1,1 -1,3 0,5 1,1 2,1 3,1z"></path>
    <path class="fil2" d="M1294 1100l23 5c2,1 4,-1 5,-2 0,-2 -1,-4 -3,-5l-25 -6c-1,0 -3,0 -3,1l-24 22 4 5 23 -20z"></path>
    <path class="fil2" d="M1339 1059l17 4c2,1 4,0 4,-2 1,-2 -1,-4 -2,-4l-19 -5c-1,-1 -3,0 -3,1l-26 22 6 5 23 -21z"></path>
    <path class="fil2" d="M1385 1017l11 3c2,1 4,-1 4,-2 1,-2 0,-4 -2,-5l-13 -3c-1,0 -3,0 -4,1l-25 23 6 4 23 -21z"></path>
    <polygon class="fil2" points="1487,982 1510,988 1518,983 1518,983 1487,975 "></polygon>
    <path class="fil2" d="M1552 1006l4 -6 46 12 6 -5 -52 -14c-2,0 -3,0 -4,1l-6 7c-1,2 0,4 1,5 2,1 4,1 5,0z"></path>
    <path class="fil2" d="M1641 1030l6 -5 43 11 7 -5 -50 -14c0,0 -2,0 -2,1l-8 6c-2,1 -2,3 -1,5 1,1 3,2 5,1z"></path>
    <path class="fil2" d="M1727 1052l6 -4 50 13 3 -6 -52 -15c-1,0 -2,0 -3,1l-8 6c-1,1 -1,3 0,4 1,2 3,2 4,1z"></path>
    <path class="fil2" d="M1814 1076l8 -5 41 11 7 -5 -48 -13c-1,0 -2,0 -3,0l-9 7c-1,1 -2,3 -1,4 2,2 4,2 5,1z"></path>
    <path class="fil2" d="M1897 1097l5 -5 8 3 0 -8 -8 -2c-1,0 -2,0 -3,1l-7 6c-1,1 -1,4 0,5 1,1 3,2 5,0z"></path>
    <path class="fil2" d="M2001 1063l-35 -12c-1,0 -2,0 -3,0l-42 11c-2,1 -4,3 -3,6 0,2 3,3 5,3l41 -11 32 11 8 14 6 -7 -7 -13c0,-1 -1,-1 -2,-2z"></path>
    <path class="fil2" d="M1917 1019l41 -11 32 11 9 17 0 -5 5 -6 -7 -12c0,-1 -1,-2 -2,-2l-35 -12c-1,-1 -2,-1 -3,0l-42 11c-3,0 -4,3 -4,5 1,3 4,4 6,4z"></path>
    <path class="fil2" d="M1402 921l12 -11 31 1 38 10 10 17 2 -19 -3 -5c0,-2 -2,-3 -3,-3l-42 -12c0,0 -1,0 -1,0l-34 0c-2,0 -3,0 -4,1l-13 12c-3,2 -3,6 -1,8 3,3 6,3 8,1z"></path>
    <path class="fil2" d="M1408 873l12 -11 31 1 38 10 3 4 1 -1 0 -14 -40 -11c-1,0 -1,0 -2,0l-33 0c-2,0 -3,0 -4,1l-13 12c-3,2 -3,6 -1,8 2,3 6,3 8,1z"></path>
    <path class="fil2" d="M1141 1102c2,0 3,0 5,-2l7 -8 61 1c4,0 6,-3 6,-6 0,-3 -2,-6 -5,-6l-64 0c-2,0 -3,0 -4,2l-10 9c-2,3 -2,6 1,9 1,1 2,1 3,1z"></path>
    <path class="fil2" d="M1141 1159c2,0 3,0 5,-1l7 -9 61 1c1,0 1,0 1,0 3,0 5,-3 5,-6 0,-3 -2,-6 -5,-6l-64 0c-2,0 -3,1 -4,2l-10 10c-2,2 -2,6 1,8 1,1 2,1 3,1z"></path>
    <path class="fil2" d="M1803 1800c0,0 0,0 -1,-1 -1,-1 -1,-3 -1,-5 1,-3 3,-5 7,-5 0,0 0,0 1,0l19 3c0,-3 0,-7 -1,-11 -4,-43 -33,-82 -72,-98l-7 14c0,1 -1,1 -2,1l-1 0c0,0 -1,-1 -1,-1 0,-1 0,-2 0,-2 0,0 0,-1 0,-1 1,-1 0,-2 0,-3 -1,-1 -1,-2 -2,-2l-17 -3c-2,-1 -4,1 -4,3 0,1 -1,1 -2,2 -1,0 -2,-1 -2,-2l-4 -13c-43,3 -76,36 -82,80l25 5c2,0 4,1 4,2 1,2 2,4 2,5 -1,2 -2,4 -3,5 -1,0 -1,0 -2,0l-81 -15 10 32 1 0 39 7c1,0 1,1 1,2 12,51 55,90 101,90 35,0 65,-22 78,-57 0,0 1,-1 2,-1l53 10c7,-10 16,-23 18,-27l-76 -14z"></path>
    <path class="fil2" d="M2927 528l0 103 -130 0 -17 47 147 0 0 98 -183 0 -18 47 201 0 0 98 -237 0 -17 47 254 0 0 98 -290 0 -18 47 308 0 0 98 -344 0 -17 47 361 0 0 98 -397 0 -18 47 415 0 0 98 -451 0 -17 47 468 0 0 98 -504 0 -18 47 522 0 0 57c0,13 -1,27 -1,40l-556 0 -18 48 572 0c-2,33 -6,65 -10,97l-598 0 -18 48 608 0c-5,33 -12,65 -20,97l-623 0 -18 48 628 0c-10,33 -21,65 -33,97l-631 0 -17 48 630 0c-14,33 -30,65 -46,97l-620 0 -18 48 612 0c-19,33 -40,66 -61,97l-587 0 -17 48 570 0c-26,33 -52,66 -81,97l-525 0 -18 48 498 0c-35,34 -71,67 -109,97l-558 0 0 -826c0,0 0,-1 -1,-1l-276 -51c0,0 0,0 0,0 -1,0 -1,1 -1,1l0 877 -227 0 0 -804c-1,0 -2,0 -2,0 -5,0 -8,-4 -6,-9 1,-3 4,-6 8,-8l0 -35 -132 92 0 764 -499 0c-38,-30 -75,-63 -109,-97l546 0 -17 -48 -575 0c-28,-31 -55,-64 -80,-97l619 0 -18 -48 -635 0c-22,-31 -42,-64 -61,-97l661 0 -18 -48 -669 0c-17,-32 -32,-64 -46,-97l679 0 -18 -48 -680 0c-12,-32 -22,-64 -32,-97l677 0 -18 -48 -672 0c-8,-32 -15,-64 -21,-97l657 0 -17 -48 -647 0c-5,-32 -8,-64 -10,-97l621 0 -18 -48 -605 0c-1,-13 -1,-27 -1,-40l0 -57 570 0 -17 -47 -553 0 0 -98 517 0 -18 -47 -499 0 0 -98 463 0 -17 -47 -446 0 0 -98 410 0 -18 -47 -392 0 0 -98 356 0 -17 -47 -339 0 0 -98 303 0 -18 -47 -285 0 0 -98 249 0 -17 -47 -232 0 0 -98 196 0 -18 -47 -178 0 0 -103c0,-53 -43,-96 -95,-96l0 1318c0,799 650,1449 1449,1449 799,0 1449,-650 1449,-1449l0 -1317c-53,0 -95,43 -95,95zm-1099 1471l0 0c6,0 11,5 11,11 1,6 -4,11 -10,11 -5,0 -11,-5 -11,-11 0,-6 4,-11 10,-11zm-172 -6l0 -23c0,0 1,-1 1,-1l144 25c0,0 1,0 1,1l0 22c0,0 -1,1 -1,1 -1,0 -1,0 -2,-1 -2,-4 -5,-6 -9,-7 -9,-3 -19,1 -27,8 0,0 -1,1 -1,1 -4,2 -8,4 -13,4 -3,0 -7,-1 -10,-2 -3,-2 -6,-4 -7,-8 -2,-4 -2,-8 0,-12 2,-4 7,-7 11,-7 2,0 4,1 6,2 2,1 4,3 5,5 0,2 0,4 -1,7 -1,2 -3,3 -6,3 -1,0 -2,0 -3,-1 -1,0 -3,0 -3,1 -1,1 -1,2 0,3 0,0 0,0 1,0 2,2 5,2 8,1l0 0c4,-1 6,-3 7,-5 2,-4 2,-7 1,-11 -1,-3 -4,-6 -7,-7 -2,-1 -5,-2 -8,-2 -5,0 -9,2 -13,6 0,0 0,0 -1,0 0,0 0,0 0,0 -3,-6 -9,-10 -16,-10 -2,0 -3,1 -5,1 -3,1 -6,3 -8,6 -2,4 -2,7 -1,10 0,2 1,3 2,4 3,3 8,5 13,4 0,0 1,-1 1,-1 0,-1 0,-1 0,-2 0,-1 -2,-2 -3,-1 -1,0 -1,0 -2,0 -3,0 -6,-2 -7,-5 0,-2 0,-4 1,-6 1,-3 3,-4 6,-5 1,0 2,0 3,0 6,0 10,3 12,8 1,4 1,9 -2,13 -2,3 -5,5 -8,6 -3,0 -5,1 -7,1 -8,0 -16,-6 -19,-13 0,0 0,-1 0,-1 -2,-8 -10,-14 -17,-15 -1,0 -2,0 -3,0 -4,0 -8,1 -11,4 -1,0 -1,1 -2,0 0,0 0,0 0,-1zm-34 -25l0 0c6,0 11,4 11,10 1,6 -4,11 -9,11 -6,0 -11,-5 -12,-11 0,-6 4,-10 10,-10zm-360 75l0 0c0,0 0,-1 0,-1l78 -52 0 23c0,0 0,0 0,0 -2,-2 -5,-2 -7,-1 -1,0 -1,0 -2,1 -4,2 -8,9 -10,15l0 1c-1,6 -6,12 -10,14 -1,0 -2,0 -3,0 -2,0 -3,-1 -4,-2 -1,-2 -2,-6 -1,-9 1,-4 3,-8 6,-9 1,0 1,0 2,0 1,0 2,1 2,2 1,1 1,2 0,4 0,2 -1,4 -3,5 0,0 0,0 -1,0 -1,0 -2,1 -2,2 0,1 0,2 0,2 0,1 1,1 2,1 2,0 6,-3 7,-6 1,-1 1,-2 1,-3 1,-3 1,-6 0,-9 -1,-2 -3,-3 -5,-3 -1,0 -2,0 -3,1 -4,1 -7,5 -9,10 -2,-2 -5,-2 -8,-1 -1,0 -3,2 -4,3 -2,2 -4,5 -4,8 -1,3 -1,6 0,8 1,2 2,3 4,3l1 0c1,0 3,-1 5,-2 0,-1 0,-1 0,-1 1,-1 1,-2 0,-3 0,-1 -1,-1 -2,0 -1,1 -1,1 -2,1 0,0 -1,0 -1,0 -1,0 -1,0 -1,-1 -1,-1 -1,-3 -1,-5 1,-1 2,-3 3,-4 1,-1 2,-2 3,-2 2,-1 4,-1 5,2 1,2 1,6 0,9 -1,3 -3,6 -4,7 -2,2 -4,3 -5,4 -2,1 -5,1 -7,-1 0,0 0,0 0,0 -4,-4 -11,-5 -15,-1 -3,2 -4,4 -6,7l1 -17zm-24 17l0 0c2,-5 6,-8 10,-8 4,0 6,3 5,8 -2,4 -6,7 -10,7 -4,0 -7,-3 -5,-7zm335 1044l0 0c-186,0 -364,-38 -525,-106l1050 0c-162,68 -339,106 -525,106zm625 -154l-1250 0c-56,-29 -109,-61 -159,-97l1568 0c-51,36 -104,68 -159,97z"></path>
    <path class="fil2" d="M1761 0c-67,0 -132,18 -188,53 -57,-35 -121,-53 -189,-53l-1261 0 0 95 1261 0c58,0 114,19 160,53l29 22 28 -22c47,-34 102,-53 160,-53l1261 0 0 -95 -1261 0z"></path>
    <path class="fil2" d="M4694 1526c-4,-6 -11,-13 -26,-14 -4,-2 -8,-2 -12,0l-227 0c-23,0 -39,12 -41,29l-258 803 -23 77 -22 -77 -277 -802c-6,-19 -19,-30 -38,-30l-236 0c-15,0 -23,7 -27,11 -4,6 -8,16 -3,32l422 1102c32,86 93,131 177,131l5 0c84,0 143,-43 176,-127l411 -1106c6,-14 2,-24 -1,-29z"></path>
    <path class="fil2" d="M5534 1603c-87,-70 -211,-105 -367,-105 -158,0 -303,34 -428,101 -15,7 -20,17 -22,24 -3,11 -1,21 6,31l78 155c9,21 24,24 31,24 9,0 18,-4 25,-9 84,-49 183,-73 302,-73 152,0 226,62 226,188l0 58c-66,-28 -163,-42 -286,-42 -141,0 -259,33 -350,99 -101,75 -152,179 -152,308 0,137 51,243 154,314 85,60 197,91 331,91l407 0c54,0 99,-17 132,-51 35,-35 53,-81 53,-138l0 -656c0,-139 -47,-247 -140,-319zm-149 644l0 275 -272 0c-154,0 -230,-55 -230,-169 0,-102 78,-152 237,-152 112,0 201,16 265,46z"></path>
    <path class="fil2" d="M6653 2140c-58,-49 -155,-93 -296,-134 -112,-32 -183,-59 -217,-84 -34,-21 -49,-48 -49,-86 0,-24 0,-99 171,-99 113,0 206,34 275,100 7,7 15,10 24,10 12,0 23,-7 29,-13 1,0 1,-1 2,-1l124 -127c4,-5 17,-22 -3,-50 -86,-113 -237,-171 -448,-171 -136,0 -247,30 -331,89 -91,65 -137,154 -137,264 0,111 40,202 120,270 67,56 178,108 331,154 93,27 150,49 181,68 38,23 56,50 56,87 0,38 -20,66 -58,86 -38,22 -89,33 -152,33 -144,0 -261,-44 -345,-128 -9,-11 -18,-13 -25,-13 -10,0 -20,6 -28,16l-131 145c-2,1 -3,3 -3,5 -6,15 -4,28 8,43 115,125 286,189 509,189 140,0 258,-31 350,-92 102,-70 154,-167 154,-289 0,-116 -37,-207 -111,-272z"></path>
    <path class="fil2" d="M7697 2140c-59,-49 -156,-93 -296,-134 -113,-32 -184,-59 -218,-84 -33,-21 -49,-48 -49,-86 0,-24 0,-99 171,-99 113,0 206,34 275,100 8,7 16,10 24,10 13,0 23,-7 30,-13 0,0 1,-1 1,-1l124 -127c4,-5 18,-22 -2,-50 -87,-113 -237,-171 -449,-171 -135,0 -247,30 -331,89 -90,65 -136,154 -136,264 0,111 40,202 119,270 67,56 179,108 331,154 94,27 151,49 181,68 38,23 56,50 56,87 0,38 -19,66 -57,86 -39,22 -90,33 -152,33 -144,0 -261,-44 -346,-128 -8,-10 -18,-13 -24,-13 -10,0 -20,6 -29,16l-131 145c-1,1 -2,3 -3,5 -9,21 4,37 9,43 114,125 285,189 508,189 141,0 259,-31 350,-92 103,-70 155,-167 155,-289 0,-116 -37,-207 -111,-272z"></path>
    <path class="fil2" d="M8446 1484c-173,0 -317,58 -428,174 -117,121 -176,283 -176,482 0,196 62,358 183,482 112,113 251,171 412,171 179,0 328,-59 442,-175 118,-121 178,-284 178,-483 0,-198 -62,-359 -183,-478 -113,-115 -257,-173 -428,-173zm-224 361l0 0c56,-62 130,-94 220,-94 94,0 170,32 226,95 1,0 1,1 1,1 63,67 94,164 94,288 0,130 -31,231 -94,298 -59,63 -133,94 -227,94 -86,0 -159,-33 -217,-97 -64,-72 -95,-169 -95,-295 0,-125 31,-223 92,-290z"></path>
    <path class="fil2" d="M10125 1512c-4,-2 -9,-2 -13,0l-214 0c-23,0 -37,13 -37,35l0 731c0,82 -17,142 -50,179 -35,42 -94,63 -180,63 -154,0 -228,-77 -228,-235l0 -733c0,-30 -20,-40 -37,-40l-217 0c-24,0 -38,15 -38,40l0 768c0,150 46,267 138,348 91,78 218,118 378,118 161,0 288,-40 380,-120 97,-84 146,-202 146,-352l0 -767c0,-20 -11,-32 -28,-35z"></path>
    <path class="fil2" d="M10970 2285c81,-23 148,-68 200,-134 57,-72 86,-158 86,-257 0,-128 -47,-227 -139,-295 -78,-57 -179,-86 -300,-86l-418 0c-95,0 -145,51 -145,147l0 1073c0,25 15,34 29,34l219 0c18,0 31,-14 31,-34l0 -417 141 0 332 433c5,11 17,18 31,18l246 0c15,0 22,-7 25,-13 4,-5 7,-15 -2,-32l-336 -437zm4 -377l0 0c0,56 -15,96 -45,120 -34,24 -91,37 -169,37l-227 0 0 -300 239 0c136,0 202,47 202,143z"></path>
    <path class="fil2" d="M12140 1603c-87,-70 -211,-105 -366,-105 -159,0 -303,34 -429,101 -12,6 -19,14 -22,24 -3,11 -1,21 6,31l78 155c9,21 24,24 32,24 8,0 17,-4 24,-9 84,-49 183,-73 302,-73 152,0 226,62 226,188l0 58c-67,-28 -161,-42 -285,-42 -142,0 -260,33 -351,99 -101,75 -152,179 -152,308 0,137 52,243 154,314 85,60 197,91 331,91l407 0c54,0 99,-17 132,-51 35,-35 53,-81 53,-138l0 -656c0,-140 -47,-247 -140,-319zm-149 644l0 275 -272 0c-154,0 -230,-55 -230,-169 0,-102 78,-152 237,-152 112,0 201,16 265,46z"></path>
    <path class="fil2" d="M13259 2140c-58,-49 -155,-93 -296,-134 -112,-32 -183,-59 -217,-84 -34,-21 -49,-48 -49,-86 0,-24 0,-99 171,-99 113,0 206,34 275,100 7,7 15,10 24,10 12,0 23,-7 29,-13 1,0 1,-1 2,-1l123 -127c5,-5 19,-22 -1,-50 -87,-113 -238,-171 -449,-171 -136,0 -247,30 -331,89 -91,65 -137,154 -137,264 0,111 40,202 120,270 67,56 178,108 331,154 93,27 151,49 181,68 38,23 56,50 56,87 0,38 -19,66 -58,86 -38,22 -89,33 -151,33 -145,0 -262,-44 -346,-128 -8,-10 -18,-13 -25,-13 -10,0 -20,6 -28,16l-131 145c-2,1 -3,3 -3,5 -9,21 3,37 8,43 115,125 286,189 509,189 140,0 258,-31 350,-92 102,-70 154,-167 154,-289 0,-116 -37,-207 -111,-272z"></path>
    <path class="fil2" d="M3994 624c-40,0 -68,33 -68,81l0 343c0,73 -69,144 -141,145l-27 0c-72,0 -140,-71 -140,-145l0 -343c0,-48 -28,-81 -68,-81 -27,0 -48,21 -48,47 0,17 9,32 23,40l0 338c0,124 111,236 233,236l27 0c122,0 234,-113 234,-237l0 -337c14,-8 23,-23 23,-40 0,-26 -21,-47 -48,-47z"></path>
    <path class="fil2" d="M4675 671c0,-26 -21,-47 -48,-47 -40,0 -67,33 -67,81l0 364 0 15 -324 -424c-10,-12 -27,-36 -61,-36 -27,0 -48,21 -48,47 0,17 9,32 24,40l0 488c-15,8 -24,23 -24,40 0,26 21,46 48,46 40,0 68,-33 68,-80l0 -364 -1 -16 330 430c15,20 33,30 55,30 27,0 48,-20 48,-46 0,-17 -9,-32 -23,-40l0 -488c14,-8 23,-23 23,-40z"></path>
    <path class="fil2" d="M4834 624c-25,0 -46,22 -46,47l0 568c0,25 21,46 46,46 26,0 46,-21 46,-46l0 -568c0,-26 -20,-47 -46,-47z"></path>
    <path class="fil2" d="M5499 624c-29,0 -54,19 -66,48l-165 429 -4 12 -168 -441c-11,-29 -37,-48 -66,-48 -29,0 -51,20 -51,48 0,23 14,40 35,43l206 535c6,21 24,35 45,35 20,0 38,-14 44,-34l206 -534c21,-5 35,-22 35,-45 0,-28 -21,-48 -51,-48z"></path>
    <path class="fil2" d="M6064 1193l-330 0 0 -184 260 0c26,0 46,-20 46,-46 0,-26 -21,-46 -46,-46l-260 0 0 -200 313 0c25,0 46,-20 46,-46 0,-26 -21,-47 -46,-47l-381 0c-27,0 -48,21 -48,47 0,17 9,32 23,40l0 488c-14,8 -23,23 -23,40 0,26 21,46 48,46l398 0c25,0 46,-21 46,-47 0,-25 -21,-45 -46,-45z"></path>
    <path class="fil2" d="M6650 1189l-112 -192c70,-29 120,-101 120,-178 0,-107 -88,-195 -195,-195l-239 0c-27,0 -48,21 -48,47 0,17 9,32 24,40l0 489c-15,8 -24,23 -24,40 0,26 21,46 48,46 40,0 68,-33 68,-80l0 -194 148 0 131 230c15,26 41,43 67,43 31,0 55,-22 55,-51 0,-24 -20,-45 -43,-45zm-86 -370l0 0c0,55 -45,100 -101,100l-171 0 0 -202 171 0c56,0 101,46 101,102z"></path>
    <path class="fil2" d="M6987 914c-88,-30 -147,-60 -147,-110 0,-63 68,-92 131,-92 38,0 84,16 113,39 9,8 19,11 30,11 25,0 47,-20 47,-45 0,-14 -8,-28 -20,-38 -47,-38 -109,-59 -173,-59 -107,0 -221,64 -221,182 0,116 112,168 197,196 87,30 155,57 155,115 0,55 -72,84 -143,84 -47,0 -95,-13 -127,-36 -7,-5 -18,-11 -34,-11 -28,0 -45,23 -45,45 0,16 8,30 22,40 52,34 122,55 184,55 113,0 235,-56 235,-178 0,-129 -123,-170 -204,-198z"></path>
    <path class="fil2" d="M7316 624c-26,0 -47,22 -47,47l0 568c0,25 21,46 47,46 25,0 46,-21 46,-46l0 -568c0,-26 -21,-47 -46,-47z"></path>
    <path class="fil2" d="M7736 624l-214 0c-27,0 -48,21 -48,47 0,17 9,32 23,40l0 488c-14,8 -23,23 -23,40 0,26 21,46 48,46l214 0c190,-2 292,-172 292,-330 0,-160 -102,-331 -292,-331zm200 331l0 0c0,118 -69,238 -200,238l-146 0 0 -476 146 0c131,3 200,122 200,238z"></path>
    <path class="fil2" d="M8576 1193l-201 -539c-7,-21 -27,-34 -50,-34 -23,0 -42,13 -49,34l-201 538c-22,6 -36,24 -36,46 0,26 23,47 51,47 36,0 60,-29 71,-56l43 -117 242 0 43 117c11,27 35,56 71,56 29,0 51,-21 51,-47 0,-22 -14,-40 -35,-45zm-163 -174l-176 0 83 -215 5 -18 88 233z"></path>
    <path class="fil2" d="M8929 624l-214 0c-27,0 -48,21 -48,47 0,17 9,32 23,40l0 488c-14,8 -23,23 -23,40 0,26 21,46 48,46l214 0c190,-2 292,-172 292,-330 0,-160 -102,-331 -292,-331zm200 331l0 0c0,118 -69,238 -200,238l-146 0 0 -476 146 0c131,3 200,122 200,238z"></path>
    <path class="fil2" d="M9743 1193l-330 0 0 -184 261 0c26,0 46,-20 46,-46 0,-26 -21,-46 -46,-46l-261 0 0 -200 313 0c26,0 47,-20 47,-46 0,-26 -21,-47 -47,-47l-380 0c-27,0 -48,21 -48,47 0,17 9,32 23,40l0 488c-14,8 -23,23 -23,40 0,26 21,46 48,46l397 0c26,0 47,-21 47,-47 0,-25 -21,-45 -47,-45z"></path>
    <path class="fil2" d="M10414 624l-215 0c-27,0 -48,21 -48,47 0,17 9,32 23,40l0 488c-14,8 -23,23 -23,40 0,26 21,46 48,46l215 0c189,-2 291,-172 291,-330 0,-160 -102,-331 -291,-331zm199 331l0 0c0,118 -69,238 -199,238l-147 0 0 -476 146 0c131,3 200,122 200,238z"></path>
    <path class="fil2" d="M11228 1193l-330 0 0 -184 260 0c26,0 46,-20 46,-46 0,-26 -21,-46 -46,-46l-260 0 0 -200 313 0c26,0 46,-20 46,-46 0,-26 -21,-47 -46,-47l-381 0c-27,0 -48,21 -48,47 0,17 9,32 23,40l0 488c-14,8 -23,23 -23,40 0,26 21,46 48,46l398 0c25,0 46,-21 46,-47 0,-25 -20,-45 -46,-45z"></path>
   </g>
  </g>
 </g>
</svg>